<?xml version="1.0" encoding="utf-8"?>
<!-- Generator: Adobe Illustrator 25.4.1, SVG Export Plug-In . SVG Version: 6.00 Build 0)  -->
<svg version="1.1" id="图层_1" xmlns="http://www.w3.org/2000/svg" xmlns:xlink="http://www.w3.org/1999/xlink" x="0px" y="0px"
	 viewBox="0 0 296 296" style="enable-background:new 0 0 296 296;" xml:space="preserve">
<style type="text/css">
	.st0{fill:#FFFFFF;}
</style>
<rect class="st0" width="296" height="296"/>
<rect x="142.9" y="20.4" width="10.5" height="10.5"/>
<rect x="153.1" y="20.4" width="10.5" height="10.5"/>
<rect x="163.3" y="20.4" width="10.5" height="10.5"/>
<rect x="102.1" y="30.6" width="10.5" height="10.5"/>
<rect x="122.5" y="30.6" width="10.5" height="10.5"/>
<rect x="142.9" y="30.6" width="10.5" height="10.5"/>
<rect x="153.1" y="30.6" width="10.5" height="10.5"/>
<rect x="183.7" y="30.6" width="10.5" height="10.5"/>
<rect x="142.9" y="40.8" width="10.5" height="10.5"/>
<rect x="153.1" y="40.8" width="10.5" height="10.5"/>
<rect x="163.3" y="40.8" width="10.5" height="10.5"/>
<rect x="102.1" y="51" width="10.5" height="10.5"/>
<rect x="112.3" y="51" width="10.5" height="10.5"/>
<rect x="122.5" y="51" width="10.5" height="10.5"/>
<rect x="132.7" y="51" width="10.5" height="10.5"/>
<rect x="163.3" y="51" width="10.5" height="10.5"/>
<rect x="112.3" y="61.2" width="10.5" height="10.5"/>
<rect x="132.7" y="61.2" width="10.5" height="10.5"/>
<rect x="163.3" y="61.2" width="10.5" height="10.5"/>
<rect x="173.5" y="61.2" width="10.5" height="10.5"/>
<rect x="183.7" y="61.2" width="10.5" height="10.5"/>
<rect x="102.1" y="71.4" width="10.5" height="10.5"/>
<rect x="112.3" y="71.4" width="10.5" height="10.5"/>
<rect x="142.9" y="71.4" width="10.5" height="10.5"/>
<rect x="153.1" y="71.4" width="10.5" height="10.5"/>
<rect x="183.7" y="71.4" width="10.5" height="10.5"/>
<rect x="102.1" y="81.7" width="10.5" height="10.5"/>
<rect x="122.5" y="81.7" width="10.5" height="10.5"/>
<rect x="142.9" y="81.7" width="10.5" height="10.5"/>
<rect x="163.3" y="81.7" width="10.5" height="10.5"/>
<rect x="183.7" y="81.7" width="10.5" height="10.5"/>
<rect x="112.3" y="91.9" width="10.5" height="10.5"/>
<rect x="122.5" y="91.9" width="10.5" height="10.5"/>
<rect x="132.7" y="91.9" width="10.5" height="10.5"/>
<rect x="142.9" y="91.9" width="10.5" height="10.5"/>
<rect x="163.3" y="91.9" width="10.5" height="10.5"/>
<rect x="173.5" y="91.9" width="10.5" height="10.5"/>
<rect x="20.4" y="102.1" width="10.5" height="10.5"/>
<rect x="30.6" y="102.1" width="10.5" height="10.5"/>
<rect x="40.8" y="102.1" width="10.5" height="10.5"/>
<rect x="51" y="102.1" width="10.5" height="10.5"/>
<rect x="61.2" y="102.1" width="10.5" height="10.5"/>
<rect x="81.7" y="102.1" width="10.5" height="10.5"/>
<rect x="91.9" y="102.1" width="10.5" height="10.5"/>
<rect x="102.1" y="102.1" width="10.5" height="10.5"/>
<rect x="112.3" y="102.1" width="10.5" height="10.5"/>
<rect x="142.9" y="102.1" width="10.5" height="10.5"/>
<rect x="153.1" y="102.1" width="10.5" height="10.5"/>
<rect x="193.9" y="102.1" width="10.5" height="10.5"/>
<rect x="214.3" y="102.1" width="10.5" height="10.5"/>
<rect x="234.8" y="102.1" width="10.5" height="10.5"/>
<rect x="255.2" y="102.1" width="10.5" height="10.5"/>
<rect x="20.4" y="112.3" width="10.5" height="10.5"/>
<rect x="51" y="112.3" width="10.5" height="10.5"/>
<rect x="61.2" y="112.3" width="10.5" height="10.5"/>
<rect x="91.9" y="112.3" width="10.5" height="10.5"/>
<rect x="102.1" y="112.3" width="10.5" height="10.5"/>
<rect x="122.5" y="112.3" width="10.5" height="10.5"/>
<rect x="163.3" y="112.3" width="10.5" height="10.5"/>
<rect x="224.6" y="112.3" width="10.5" height="10.5"/>
<rect x="234.8" y="112.3" width="10.5" height="10.5"/>
<rect x="245" y="112.3" width="10.5" height="10.5"/>
<rect x="265.4" y="112.3" width="10.5" height="10.5"/>
<rect x="20.4" y="122.5" width="10.5" height="10.5"/>
<rect x="81.7" y="122.5" width="10.5" height="10.5"/>
<rect x="122.5" y="122.5" width="10.5" height="10.5"/>
<rect x="183.7" y="122.5" width="10.5" height="10.5"/>
<rect x="204.1" y="122.5" width="10.5" height="10.5"/>
<rect x="245" y="122.5" width="10.5" height="10.5"/>
<rect x="255.2" y="122.5" width="10.5" height="10.5"/>
<rect x="265.4" y="122.5" width="10.5" height="10.5"/>
<rect x="20.4" y="132.7" width="10.5" height="10.5"/>
<rect x="30.6" y="132.7" width="10.5" height="10.5"/>
<rect x="40.8" y="132.7" width="10.5" height="10.5"/>
<rect x="102.1" y="132.7" width="10.5" height="10.5"/>
<rect x="132.7" y="132.7" width="10.5" height="10.5"/>
<rect x="142.9" y="132.7" width="10.5" height="10.5"/>
<rect x="153.1" y="132.7" width="10.5" height="10.5"/>
<rect x="163.3" y="132.7" width="10.5" height="10.5"/>
<rect x="173.5" y="132.7" width="10.5" height="10.5"/>
<rect x="204.1" y="132.7" width="10.5" height="10.5"/>
<rect x="265.4" y="132.7" width="10.5" height="10.5"/>
<rect x="30.6" y="142.9" width="10.5" height="10.5"/>
<rect x="51" y="142.9" width="10.5" height="10.5"/>
<rect x="71.4" y="142.9" width="10.5" height="10.5"/>
<rect x="81.7" y="142.9" width="10.5" height="10.5"/>
<rect x="102.1" y="142.9" width="10.5" height="10.5"/>
<rect x="112.3" y="142.9" width="10.5" height="10.5"/>
<rect x="122.5" y="142.9" width="10.5" height="10.5"/>
<rect x="173.5" y="142.9" width="10.5" height="10.5"/>
<rect x="214.3" y="142.9" width="10.5" height="10.5"/>
<rect x="234.8" y="142.9" width="10.5" height="10.5"/>
<rect x="245" y="142.9" width="10.5" height="10.5"/>
<rect x="20.4" y="153.1" width="10.5" height="10.5"/>
<rect x="91.9" y="153.1" width="10.5" height="10.5"/>
<rect x="173.5" y="153.1" width="10.5" height="10.5"/>
<rect x="183.7" y="153.1" width="10.5" height="10.5"/>
<rect x="193.9" y="153.1" width="10.5" height="10.5"/>
<rect x="204.1" y="153.1" width="10.5" height="10.5"/>
<rect x="224.6" y="153.1" width="10.5" height="10.5"/>
<rect x="234.8" y="153.1" width="10.5" height="10.5"/>
<rect x="245" y="153.1" width="10.5" height="10.5"/>
<rect x="20.4" y="163.3" width="10.5" height="10.5"/>
<rect x="71.4" y="163.3" width="10.5" height="10.5"/>
<rect x="81.7" y="163.3" width="10.5" height="10.5"/>
<rect x="112.3" y="163.3" width="10.5" height="10.5"/>
<rect x="132.7" y="163.3" width="10.5" height="10.5"/>
<rect x="153.1" y="163.3" width="10.5" height="10.5"/>
<rect x="183.7" y="163.3" width="10.5" height="10.5"/>
<rect x="204.1" y="163.3" width="10.5" height="10.5"/>
<rect x="255.2" y="163.3" width="10.5" height="10.5"/>
<rect x="265.4" y="163.3" width="10.5" height="10.5"/>
<rect x="20.4" y="173.5" width="10.5" height="10.5"/>
<rect x="71.4" y="173.5" width="10.5" height="10.5"/>
<rect x="102.1" y="173.5" width="10.5" height="10.5"/>
<rect x="112.3" y="173.5" width="10.5" height="10.5"/>
<rect x="122.5" y="173.5" width="10.5" height="10.5"/>
<rect x="132.7" y="173.5" width="10.5" height="10.5"/>
<rect x="142.9" y="173.5" width="10.5" height="10.5"/>
<rect x="163.3" y="173.5" width="10.5" height="10.5"/>
<rect x="193.9" y="173.5" width="10.5" height="10.5"/>
<rect x="214.3" y="173.5" width="10.5" height="10.5"/>
<rect x="224.6" y="173.5" width="10.5" height="10.5"/>
<rect x="234.8" y="173.5" width="10.5" height="10.5"/>
<rect x="255.2" y="173.5" width="10.5" height="10.5"/>
<rect x="20.4" y="183.7" width="10.5" height="10.5"/>
<rect x="51" y="183.7" width="10.5" height="10.5"/>
<rect x="81.7" y="183.7" width="10.5" height="10.5"/>
<rect x="173.5" y="183.7" width="10.5" height="10.5"/>
<rect x="183.7" y="183.7" width="10.5" height="10.5"/>
<rect x="193.9" y="183.7" width="10.5" height="10.5"/>
<rect x="204.1" y="183.7" width="10.5" height="10.5"/>
<rect x="214.3" y="183.7" width="10.5" height="10.5"/>
<rect x="224.6" y="183.7" width="10.5" height="10.5"/>
<rect x="265.4" y="183.7" width="10.5" height="10.5"/>
<rect x="102.1" y="193.9" width="10.5" height="10.5"/>
<rect x="122.5" y="193.9" width="10.5" height="10.5"/>
<rect x="142.9" y="193.9" width="10.5" height="10.5"/>
<rect x="153.1" y="193.9" width="10.5" height="10.5"/>
<rect x="183.7" y="193.9" width="10.5" height="10.5"/>
<rect x="224.6" y="193.9" width="10.5" height="10.5"/>
<rect x="234.8" y="193.9" width="10.5" height="10.5"/>
<rect x="255.2" y="193.9" width="10.5" height="10.5"/>
<rect x="102.1" y="204.1" width="10.5" height="10.5"/>
<rect x="112.3" y="204.1" width="10.5" height="10.5"/>
<rect x="122.5" y="204.1" width="10.5" height="10.5"/>
<rect x="153.1" y="204.1" width="10.5" height="10.5"/>
<rect x="173.5" y="204.1" width="10.5" height="10.5"/>
<rect x="183.7" y="204.1" width="10.5" height="10.5"/>
<rect x="204.1" y="204.1" width="10.5" height="10.5"/>
<rect x="224.6" y="204.1" width="10.5" height="10.5"/>
<rect x="234.8" y="204.1" width="10.5" height="10.5"/>
<rect x="255.2" y="204.1" width="10.5" height="10.5"/>
<rect x="265.4" y="204.1" width="10.5" height="10.5"/>
<rect x="112.3" y="214.3" width="10.5" height="10.5"/>
<rect x="132.7" y="214.3" width="10.5" height="10.5"/>
<rect x="142.9" y="214.3" width="10.5" height="10.5"/>
<rect x="163.3" y="214.3" width="10.5" height="10.5"/>
<rect x="183.7" y="214.3" width="10.5" height="10.5"/>
<rect x="224.6" y="214.3" width="10.5" height="10.5"/>
<rect x="234.8" y="214.3" width="10.5" height="10.5"/>
<rect x="265.4" y="214.3" width="10.5" height="10.5"/>
<rect x="102.1" y="224.6" width="10.5" height="10.5"/>
<rect x="112.3" y="224.6" width="10.5" height="10.5"/>
<rect x="122.5" y="224.6" width="10.5" height="10.5"/>
<rect x="142.9" y="224.6" width="10.5" height="10.5"/>
<rect x="153.1" y="224.6" width="10.5" height="10.5"/>
<rect x="173.5" y="224.6" width="10.5" height="10.5"/>
<rect x="183.7" y="224.6" width="10.5" height="10.5"/>
<rect x="193.9" y="224.6" width="10.5" height="10.5"/>
<rect x="204.1" y="224.6" width="10.5" height="10.5"/>
<rect x="214.3" y="224.6" width="10.5" height="10.5"/>
<rect x="224.6" y="224.6" width="10.5" height="10.5"/>
<rect x="234.8" y="224.6" width="10.5" height="10.5"/>
<rect x="245" y="224.6" width="10.5" height="10.5"/>
<rect x="255.2" y="224.6" width="10.5" height="10.5"/>
<rect x="265.4" y="224.6" width="10.5" height="10.5"/>
<rect x="102.1" y="234.8" width="10.5" height="10.5"/>
<rect x="112.3" y="234.8" width="10.5" height="10.5"/>
<rect x="122.5" y="234.8" width="10.5" height="10.5"/>
<rect x="132.7" y="234.8" width="10.5" height="10.5"/>
<rect x="142.9" y="234.8" width="10.5" height="10.5"/>
<rect x="153.1" y="234.8" width="10.5" height="10.5"/>
<rect x="163.3" y="234.8" width="10.5" height="10.5"/>
<rect x="183.7" y="234.8" width="10.5" height="10.5"/>
<rect x="214.3" y="234.8" width="10.5" height="10.5"/>
<rect x="234.8" y="234.8" width="10.5" height="10.5"/>
<rect x="265.4" y="234.8" width="10.5" height="10.5"/>
<rect x="102.1" y="245" width="10.5" height="10.5"/>
<rect x="132.7" y="245" width="10.5" height="10.5"/>
<rect x="153.1" y="245" width="10.5" height="10.5"/>
<rect x="173.5" y="245" width="10.5" height="10.5"/>
<rect x="183.7" y="245" width="10.5" height="10.5"/>
<rect x="234.8" y="245" width="10.5" height="10.5"/>
<rect x="265.4" y="245" width="10.5" height="10.5"/>
<rect x="102.1" y="255.2" width="10.5" height="10.5"/>
<rect x="112.3" y="255.2" width="10.5" height="10.5"/>
<rect x="142.9" y="255.2" width="10.5" height="10.5"/>
<rect x="163.3" y="255.2" width="10.5" height="10.5"/>
<rect x="173.5" y="255.2" width="10.5" height="10.5"/>
<rect x="183.7" y="255.2" width="10.5" height="10.5"/>
<rect x="245" y="255.2" width="10.5" height="10.5"/>
<rect x="265.4" y="255.2" width="10.5" height="10.5"/>
<rect x="102.1" y="265.4" width="10.5" height="10.5"/>
<rect x="122.5" y="265.4" width="10.5" height="10.5"/>
<rect x="132.7" y="265.4" width="10.5" height="10.5"/>
<rect x="173.5" y="265.4" width="10.5" height="10.5"/>
<rect x="183.7" y="265.4" width="10.5" height="10.5"/>
<rect x="193.9" y="265.4" width="10.5" height="10.5"/>
<rect x="214.3" y="265.4" width="10.5" height="10.5"/>
<rect x="234.8" y="265.4" width="10.5" height="10.5"/>
<rect x="255.2" y="265.4" width="10.5" height="10.5"/>
<rect x="265.4" y="265.4" width="10.5" height="10.5"/>
<path d="M20.4,20.4v71.4h71.4V20.4H20.4z M81.7,81.7h-51v-51h51V81.7z"/>
<path d="M204.1,20.4v71.4h71.4V20.4H204.1z M265.4,81.7h-51v-51h51V81.7z"/>
<path d="M20.4,204.1v71.4h71.4v-71.4H20.4z M81.7,265.4h-51v-51h51V265.4z"/>
<rect x="40.8" y="40.8" width="30.6" height="30.6"/>
<rect x="224.6" y="40.8" width="30.6" height="30.6"/>
<rect x="40.8" y="224.6" width="30.6" height="30.6"/>
</svg>
