<svg id="图层_1" data-name="图层 1" xmlns="http://www.w3.org/2000/svg" viewBox="0 0 232 232"><defs><style>.cls-1{fill:#fff;}</style></defs><rect class="cls-1" width="232" height="232"/><rect x="112" y="16" width="8.24" height="8.24"/><rect x="120" y="16" width="8.24" height="8.24"/><rect x="128" y="16" width="8.24" height="8.24"/><rect x="80" y="24" width="8.24" height="8.24"/><rect x="96" y="24" width="8.24" height="8.24"/><rect x="112" y="24" width="8.24" height="8.24"/><rect x="120" y="24" width="8.24" height="8.24"/><rect x="144" y="24" width="8.24" height="8.24"/><rect x="112" y="32" width="8.24" height="8.24"/><rect x="120" y="32" width="8.24" height="8.24"/><rect x="128" y="32" width="8.24" height="8.24"/><rect x="80" y="40" width="8.24" height="8.24"/><rect x="88" y="40" width="8.24" height="8.24"/><rect x="96" y="40" width="8.24" height="8.24"/><rect x="104" y="40" width="8.24" height="8.24"/><rect x="128" y="40" width="8.24" height="8.24"/><rect x="88" y="48" width="8.24" height="8.24"/><rect x="104" y="48" width="8.24" height="8.24"/><rect x="128" y="48" width="8.24" height="8.24"/><rect x="136" y="48" width="8.24" height="8.24"/><rect x="144" y="48" width="8.24" height="8.24"/><rect x="80" y="56" width="8.24" height="8.24"/><rect x="88" y="56" width="8.24" height="8.24"/><rect x="112" y="56" width="8.24" height="8.24"/><rect x="120" y="56" width="8.24" height="8.24"/><rect x="144" y="56" width="8.24" height="8.24"/><rect x="80" y="64" width="8.24" height="8.24"/><rect x="96" y="64" width="8.24" height="8.24"/><rect x="112" y="64" width="8.24" height="8.24"/><rect x="128" y="64" width="8.24" height="8.24"/><rect x="144" y="64" width="8.24" height="8.24"/><rect x="88" y="72" width="8.24" height="8.24"/><rect x="96" y="72" width="8.24" height="8.24"/><rect x="104" y="72" width="8.24" height="8.24"/><rect x="112" y="72" width="8.24" height="8.24"/><rect x="128" y="72" width="8.24" height="8.24"/><rect x="136" y="72" width="8.24" height="8.24"/><rect x="16" y="80" width="8.24" height="8.24"/><rect x="24" y="80" width="8.24" height="8.24"/><rect x="32" y="80" width="8.24" height="8.24"/><rect x="40" y="80" width="8.24" height="8.24"/><rect x="48" y="80" width="8.24" height="8.24"/><rect x="64" y="80" width="8.24" height="8.24"/><rect x="72" y="80" width="8.24" height="8.24"/><rect x="80" y="80" width="8.24" height="8.24"/><rect x="88" y="80" width="8.24" height="8.24"/><rect x="112" y="80" width="8.24" height="8.24"/><rect x="120" y="80" width="8.24" height="8.24"/><rect x="152" y="80" width="8.24" height="8.24"/><rect x="168" y="80" width="8.24" height="8.24"/><rect x="184" y="80" width="8.24" height="8.24"/><rect x="200" y="80" width="8.24" height="8.24"/><rect x="16" y="88" width="8.24" height="8.24"/><rect x="40" y="88" width="8.24" height="8.24"/><rect x="48" y="88" width="8.24" height="8.24"/><rect x="72" y="88" width="8.24" height="8.24"/><rect x="80" y="88" width="8.24" height="8.24"/><rect x="96" y="88" width="8.24" height="8.24"/><rect x="128" y="88" width="8.24" height="8.24"/><rect x="176" y="88" width="8.24" height="8.24"/><rect x="184" y="88" width="8.24" height="8.24"/><rect x="192" y="88" width="8.24" height="8.24"/><rect x="208" y="88" width="8.24" height="8.24"/><rect x="16" y="96" width="8.24" height="8.24"/><rect x="64" y="96" width="8.24" height="8.24"/><rect x="96" y="96" width="8.24" height="8.24"/><rect x="144" y="96" width="8.24" height="8.24"/><rect x="160" y="96" width="8.24" height="8.24"/><rect x="192" y="96" width="8.24" height="8.24"/><rect x="200" y="96" width="8.24" height="8.24"/><rect x="208" y="96" width="8.24" height="8.24"/><rect x="16" y="104" width="8.24" height="8.24"/><rect x="24" y="104" width="8.24" height="8.24"/><rect x="32" y="104" width="8.24" height="8.24"/><rect x="80" y="104" width="8.24" height="8.24"/><rect x="104" y="104" width="8.24" height="8.24"/><rect x="112" y="104" width="8.24" height="8.24"/><rect x="120" y="104" width="8.24" height="8.24"/><rect x="128" y="104" width="8.24" height="8.24"/><rect x="136" y="104" width="8.24" height="8.24"/><rect x="160" y="104" width="8.24" height="8.24"/><rect x="208" y="104" width="8.24" height="8.24"/><rect x="24" y="112" width="8.24" height="8.24"/><rect x="40" y="112" width="8.24" height="8.24"/><rect x="56" y="112" width="8.24" height="8.24"/><rect x="64" y="112" width="8.24" height="8.24"/><rect x="80" y="112" width="8.24" height="8.24"/><rect x="88" y="112" width="8.24" height="8.24"/><rect x="96" y="112" width="8.24" height="8.24"/><rect x="136" y="112" width="8.24" height="8.24"/><rect x="168" y="112" width="8.24" height="8.24"/><rect x="184" y="112" width="8.24" height="8.24"/><rect x="192" y="112" width="8.24" height="8.24"/><rect x="16" y="120" width="8.24" height="8.24"/><rect x="72" y="120" width="8.24" height="8.24"/><rect x="136" y="120" width="8.24" height="8.24"/><rect x="144" y="120" width="8.24" height="8.24"/><rect x="152" y="120" width="8.24" height="8.24"/><rect x="160" y="120" width="8.24" height="8.24"/><rect x="176" y="120" width="8.24" height="8.24"/><rect x="184" y="120" width="8.24" height="8.24"/><rect x="192" y="120" width="8.24" height="8.24"/><rect x="16" y="128" width="8.24" height="8.24"/><rect x="56" y="128" width="8.24" height="8.24"/><rect x="64" y="128" width="8.24" height="8.24"/><rect x="88" y="128" width="8.24" height="8.24"/><rect x="104" y="128" width="8.24" height="8.24"/><rect x="120" y="128" width="8.24" height="8.24"/><rect x="144" y="128" width="8.24" height="8.24"/><rect x="160" y="128" width="8.24" height="8.24"/><rect x="200" y="128" width="8.24" height="8.24"/><rect x="208" y="128" width="8.24" height="8.24"/><rect x="16" y="136" width="8.24" height="8.24"/><rect x="56" y="136" width="8.24" height="8.24"/><rect x="80" y="136" width="8.24" height="8.24"/><rect x="88" y="136" width="8.24" height="8.24"/><rect x="96" y="136" width="8.24" height="8.24"/><rect x="104" y="136" width="8.24" height="8.24"/><rect x="112" y="136" width="8.24" height="8.24"/><rect x="128" y="136" width="8.24" height="8.24"/><rect x="152" y="136" width="8.24" height="8.24"/><rect x="168" y="136" width="8.24" height="8.24"/><rect x="176" y="136" width="8.24" height="8.24"/><rect x="184" y="136" width="8.24" height="8.24"/><rect x="200" y="136" width="8.24" height="8.24"/><rect x="16" y="144" width="8.24" height="8.24"/><rect x="40" y="144" width="8.24" height="8.24"/><rect x="64" y="144" width="8.24" height="8.24"/><rect x="136" y="144" width="8.24" height="8.24"/><rect x="144" y="144" width="8.24" height="8.24"/><rect x="152" y="144" width="8.24" height="8.24"/><rect x="160" y="144" width="8.24" height="8.24"/><rect x="168" y="144" width="8.24" height="8.24"/><rect x="176" y="144" width="8.24" height="8.24"/><rect x="208" y="144" width="8.24" height="8.24"/><rect x="80" y="152" width="8.24" height="8.24"/><rect x="96" y="152" width="8.24" height="8.24"/><rect x="112" y="152" width="8.24" height="8.24"/><rect x="120" y="152" width="8.24" height="8.24"/><rect x="144" y="152" width="8.24" height="8.24"/><rect x="176" y="152" width="8.24" height="8.24"/><rect x="184" y="152" width="8.24" height="8.24"/><rect x="200" y="152" width="8.24" height="8.24"/><rect x="80" y="160" width="8.24" height="8.24"/><rect x="88" y="160" width="8.24" height="8.24"/><rect x="96" y="160" width="8.24" height="8.24"/><rect x="120" y="160" width="8.24" height="8.24"/><rect x="136" y="160" width="8.24" height="8.24"/><rect x="144" y="160" width="8.24" height="8.24"/><rect x="160" y="160" width="8.24" height="8.24"/><rect x="176" y="160" width="8.24" height="8.24"/><rect x="184" y="160" width="8.24" height="8.24"/><rect x="200" y="160" width="8.24" height="8.24"/><rect x="208" y="160" width="8.24" height="8.24"/><rect x="88" y="168" width="8.24" height="8.24"/><rect x="104" y="168" width="8.24" height="8.24"/><rect x="112" y="168" width="8.24" height="8.24"/><rect x="128" y="168" width="8.24" height="8.24"/><rect x="144" y="168" width="8.24" height="8.24"/><rect x="176" y="168" width="8.24" height="8.24"/><rect x="184" y="168" width="8.24" height="8.24"/><rect x="208" y="168" width="8.24" height="8.24"/><rect x="80" y="176" width="8.24" height="8.24"/><rect x="88" y="176" width="8.24" height="8.24"/><rect x="96" y="176" width="8.24" height="8.24"/><rect x="112" y="176" width="8.24" height="8.24"/><rect x="120" y="176" width="8.24" height="8.24"/><rect x="136" y="176" width="8.24" height="8.24"/><rect x="144" y="176" width="8.24" height="8.24"/><rect x="152" y="176" width="8.24" height="8.24"/><rect x="160" y="176" width="8.24" height="8.24"/><rect x="168" y="176" width="8.24" height="8.24"/><rect x="176" y="176" width="8.24" height="8.24"/><rect x="184" y="176" width="8.24" height="8.24"/><rect x="192" y="176" width="8.24" height="8.24"/><rect x="200" y="176" width="8.24" height="8.24"/><rect x="208" y="176" width="8.24" height="8.24"/><rect x="80" y="184" width="8.24" height="8.24"/><rect x="88" y="184" width="8.24" height="8.24"/><rect x="96" y="184" width="8.24" height="8.24"/><rect x="104" y="184" width="8.24" height="8.24"/><rect x="112" y="184" width="8.24" height="8.24"/><rect x="120" y="184" width="8.24" height="8.24"/><rect x="128" y="184" width="8.24" height="8.24"/><rect x="144" y="184" width="8.24" height="8.24"/><rect x="168" y="184" width="8.24" height="8.24"/><rect x="184" y="184" width="8.24" height="8.24"/><rect x="208" y="184" width="8.24" height="8.24"/><rect x="80" y="192" width="8.24" height="8.24"/><rect x="104" y="192" width="8.24" height="8.24"/><rect x="120" y="192" width="8.24" height="8.24"/><rect x="136" y="192" width="8.24" height="8.24"/><rect x="144" y="192" width="8.24" height="8.24"/><rect x="184" y="192" width="8.24" height="8.24"/><rect x="208" y="192" width="8.24" height="8.24"/><rect x="80" y="200" width="8.24" height="8.24"/><rect x="88" y="200" width="8.24" height="8.24"/><rect x="112" y="200" width="8.24" height="8.24"/><rect x="128" y="200" width="8.24" height="8.24"/><rect x="136" y="200" width="8.24" height="8.24"/><rect x="144" y="200" width="8.24" height="8.24"/><rect x="192" y="200" width="8.24" height="8.24"/><rect x="208" y="200" width="8.24" height="8.24"/><rect x="80" y="208" width="8.24" height="8.24"/><rect x="96" y="208" width="8.24" height="8.24"/><rect x="104" y="208" width="8.24" height="8.24"/><rect x="136" y="208" width="8.24" height="8.24"/><rect x="144" y="208" width="8.24" height="8.24"/><rect x="152" y="208" width="8.24" height="8.24"/><rect x="168" y="208" width="8.24" height="8.24"/><rect x="184" y="208" width="8.24" height="8.24"/><rect x="200" y="208" width="8.24" height="8.24"/><rect x="208" y="208" width="8.24" height="8.24"/><path d="M16,16V72H72V16ZM64,64H24V24H64Z"/><path d="M160,16V72h56V16Zm48,48H168V24h40Z"/><path d="M16,160v56H72V160Zm48,48H24V168H64Z"/><rect x="32" y="32" width="24" height="24"/><rect x="176" y="32" width="24" height="24"/><rect x="32" y="176" width="24" height="24"/></svg>